# xmcd
#
# Track frame offsets: 
#        150
#        10467
#        32593
#        45007
#        65203
#        88575
#        95350
#        115553
#        129006
#        142469
#        152544
#        166732
#
# Disc length: 2511 seconds
#
# Revision: 0
# Processed by: cddbd v1.5.2PL0 Copyright (c) Steve Scherf et al.
# Submitted via: ExactAudioCopy v0.99pb4
#
DISCID=8d09cd0c
DTITLE=Benbecula Minerals series - 509 Prhizzm
DYEAR=1900
DGENRE=Booty Bass
TTITLE0=Down Memory Lane
TTITLE1=Aquatic
TTITLE2=Quartz (Version One)
TTITLE3=Tear Down the Wah
TTITLE4=[X] ID
TTITLE5=Wrecking Bicycles
TTITLE6=Broken Love Song
TTITLE7=We Are Intimate Strangers
TTITLE8=All the Waste
TTITLE9=Quartz (Version Two)
TTITLE10=Desole
TTITLE11=Thirty-Seven Knots
EXTD=
EXTT0=
EXTT1=
EXTT2=
EXTT3=
EXTT4=
EXTT5=
EXTT6=
EXTT7=
EXTT8=
EXTT9=
EXTT10=
EXTT11=
PLAYORDER=
